<?xml version="1.0" encoding="UTF-8" standalone="no"?>
<!-- Created with Inkscape (http://www.inkscape.org/) -->

<svg
   width="155.84735mm"
   height="57.05806mm"
   viewBox="0 0 155.84735 57.05806"
   version="1.1"
   id="svg5"
   inkscape:version="1.2.1 (9c6d41e410, 2022-07-14)"
   sodipodi:docname="money_app.svg"
   inkscape:export-filename="C:\Users\nurhamsah\Documents\NEW MUTAN.png"
   inkscape:export-xdpi="96"
   inkscape:export-ydpi="96"
   xmlns:inkscape="http://www.inkscape.org/namespaces/inkscape"
   xmlns:sodipodi="http://sodipodi.sourceforge.net/DTD/sodipodi-0.dtd"
   xmlns="http://www.w3.org/2000/svg"
   xmlns:svg="http://www.w3.org/2000/svg">
  <sodipodi:namedview
     id="namedview7"
     pagecolor="#ffffff"
     bordercolor="#666666"
     borderopacity="1.0"
     inkscape:pageshadow="2"
     inkscape:pageopacity="0.0"
     inkscape:pagecheckerboard="0"
     inkscape:document-units="mm"
     showgrid="false"
     inkscape:snap-object-midpoints="true"
     inkscape:snap-global="false"
     inkscape:zoom="0.1767767"
     inkscape:cx="2163.7468"
     inkscape:cy="605.28341"
     inkscape:window-width="1920"
     inkscape:window-height="1027"
     inkscape:window-x="1358"
     inkscape:window-y="-8"
     inkscape:window-maximized="1"
     inkscape:current-layer="text514"
     showguides="true"
     inkscape:object-paths="true"
     inkscape:snap-smooth-nodes="true"
     inkscape:snap-bbox="true"
     inkscape:bbox-paths="true"
     inkscape:bbox-nodes="true"
     inkscape:snap-bbox-edge-midpoints="true"
     inkscape:snap-bbox-midpoints="true"
     showborder="false"
     inkscape:showpageshadow="2"
     inkscape:deskcolor="#d1d1d1" />
  <defs
     id="defs2" />
  <g
     inkscape:label="Layer 1"
     inkscape:groupmode="layer"
     id="layer1"
     transform="translate(-53.746386,-50.726976)">
    <g
       aria-label="M"
       transform="skewX(-17.694674)"
       id="text514"
       style="font-size:95.8746px;line-height:1.25;font-family:Poppins;-inkscape-font-specification:Poppins;stroke-width:0.264583">
      <path
         id="path1550"
         style="color:#000000;font-size:97.2571px;-inkscape-font-specification:Poppins;fill:#000000;stroke:none;stroke-width:12;stroke-linecap:butt;stroke-linejoin:miter;-inkscape-stroke:none;paint-order:fill markers stroke"
         d="m 123.11797,-121.57005 a 7.0336776,5.1192566 40.468294 0 0 -4.08552,5.99964 l 21.47153,67.300801 a 7.0336776,5.1192566 40.468294 0 0 7.91391,6.00015 h 8.85165 a 7.0336776,5.1192566 40.468294 0 0 4.08588,-6.00015 l -7.06491,-22.144388 18.83486,24.593848 a 7.0336776,5.1192566 40.468294 0 0 6.61102,3.55069 h 6.22494 a 7.0336776,5.1192566 40.468294 0 0 4.34344,-3.55689 l 3.09554,-24.433652 7.01577,21.990392 a 7.0336776,5.1192566 40.468294 0 0 7.91391,6.00015 h 8.84959 a 7.0336776,5.1192566 40.468294 0 0 4.08588,-6.00015 l -21.47154,-67.300801 a 7.0336776,5.1192566 40.468294 0 0 -7.91374,-5.99964 h -9.43405 a 7.0336776,5.1192566 40.468294 0 0 -4.34401,3.54862 l -5.57764,43.394253 -33.26649,-43.394253 a 7.0336776,5.1192566 40.468294 0 0 -6.6083,-3.54862 z" />
      <path
         id="path1824"
         style="color:#000000;font-size:97.2571px;-inkscape-font-specification:Poppins;fill:#000000;stroke:none;stroke-width:12;stroke-linecap:butt;stroke-linejoin:miter;paint-order:fill markers stroke"
         d="m 339.79203,-116.15157 c -9.22923,9.1538 -22.0739,40.205273 -23.88303,52.663973 l -15.39411,-40.219253 c -0.93496,-2.15877 -3.05915,-3.54841 -5.42439,-3.54862 h -9.53172 c -3.31337,4.3e-4 -6.03854,2.68628 -6.08747,5.99964 l -0.98291,67.300793 c -0.0481,3.31348 2.5985,5.99961 5.91197,6.00015 h 8.85165 c 3.3137,-2.4e-4 6.03917,-2.68645 6.08782,-6.00015 l 0.32327,-22.14438 10.62916,24.59385 c 0.93465,2.16032 3.06004,3.55098 5.4266,3.55068 h 6.22494 c 2.36784,-9.9e-4 4.53405,-1.39431 5.52993,-3.55688 l 2.12599,-3.26699 c 3.50645,-39.6228 12.29932,-60.52304 20.03435,-71.486593 -3.3695,-3.40015 -6.69997,-6.7455 -9.84205,-9.88622 z"
         sodipodi:nodetypes="cccccccccccccccccc" />
      <path
         id="path1826"
         style="fill:#000000;stroke:none;stroke-width:12;stroke-linecap:round;stroke-linejoin:miter;stroke-dasharray:none;stroke-dashoffset:0;stroke-opacity:1;paint-order:fill markers stroke"
         d="M 355.47137,-96.569887 350.819,-116.97725 c -0.10448,-0.45821 -0.58671,-0.8621 -1.08166,-0.9059 l -20.95799,-1.85463 z" />
      <path
         id="path2192"
         style="color:#000000;font-size:97.2571px;-inkscape-font-specification:Poppins;fill:#000000;stroke:none;stroke-width:12;stroke-linecap:butt;stroke-linejoin:miter;paint-order:fill markers stroke"
         d="m 418.42767,-108.99966 8.09731,7.02851 c -8.81466,11.848851 -19.34249,38.031002 -20.96751,49.221802 l -5.2242,-13.64878 -10.16991,-26.570471 -21.04358,2.451013 -0.98291,67.300798 h 20.85144 l 0.32327,-22.14438 9.4553,21.87825 20.48132,-0.55759 c 3.21578,-36.33852 10.87758,-56.92279 18.09231,-68.543619 l 7.7793,6.752559 -4.6525,-20.407542 c -0.10448,-0.45821 -0.58678,-0.86209 -1.08173,-0.90588 z" />
      <path
         id="path2194"
         style="color:#000000;font-size:97.2571px;-inkscape-font-specification:Poppins;fill:#000000;fill-opacity:1;stroke:none;stroke-width:12;stroke-linecap:butt;stroke-linejoin:miter;paint-order:fill markers stroke"
         d="m 431.85487,-81.918628 c 0.068,0.2116 -6.66912,11.28389 -9.81354,35.30689 l 3.21568,21.27829 c -0.005,0.34105 0.0202,0.67493 0.0701,1.00045 l 20.77927,-1.00045 c 0,0 -14.06382,-56.87797 -14.25151,-56.58518 z" />
      <path
         id="path4250"
         style="color:#000000;font-size:97.2571px;-inkscape-font-specification:Poppins;fill:#008080;fill-opacity:1;stroke:none;stroke-width:12;stroke-linecap:butt;stroke-linejoin:miter;paint-order:fill markers stroke"
         d="m 131.14838,-11.010324 -1.1245,-3.55714 -2.50597,7.3538596 h 3.57504 z" />
      <path
         id="path4252"
         style="color:#000000;font-size:97.2571px;-inkscape-font-specification:Poppins;fill:#d45500;fill-opacity:1;stroke:none;stroke-width:12;stroke-linecap:butt;stroke-linejoin:miter;paint-order:fill markers stroke"
         d="m 132.79002,-7.2138044 1.14363,-5.0632596 -0.89535,-2.33991 -1.74389,-4.55579 -3.60786,0.42013 -0.16856,11.5388296 2.50583,-7.3535596 1.12445,3.55689 z" />
      <path
         id="path4254"
         style="color:#000000;font-size:97.2571px;-inkscape-font-specification:Poppins;fill:#d45500;fill-opacity:1;stroke:none;stroke-width:12;stroke-linecap:butt;stroke-linejoin:miter;paint-order:fill markers stroke"
         d="m 136.14064,-21.921434 1.38803,1.20509 c -1.5113,2.03152 -3.3164,6.52058 -3.59502,8.43928 l -1.14363,5.0632596 h 3.49539 c 0.55135,-6.2303296 1.86084,-9.9003896 3.09783,-11.8928096 l 1.33358,1.15755 -0.79747,-3.49901 c -0.0179,-0.0786 -0.10051,-0.14752 -0.18537,-0.15503 z" />
      <path
         id="path4256"
         style="color:#000000;font-size:97.2571px;-inkscape-font-specification:Poppins;fill:#008080;fill-opacity:1;stroke:none;stroke-width:12;stroke-linecap:butt;stroke-linejoin:miter;paint-order:fill markers stroke"
         d="m 138.44252,-17.278184 c 0.0117,0.0363 -1.14344,1.93465 -1.68256,6.05347 0.15952,1.2597196 0.45323,2.7710996 0.57763,4.0110996 h 3.6057 c 0,0 -2.46859,-10.1147696 -2.50077,-10.0645696 z"
         sodipodi:nodetypes="ccccc" />
      <text
         xml:space="preserve"
         style="font-size:7.48773px;line-height:1.25;font-family:Poppins;-inkscape-font-specification:Poppins;letter-spacing:-0.264583px;word-spacing:0px;fill:#008080;fill-opacity:1;stroke-width:0.0700042"
         x="144.59615"
         y="-9.2128382"
         id="text4260"
         transform="skewX(17.694673)"><tspan
           sodipodi:role="line"
           id="tspan4258"
           style="font-style:normal;font-variant:normal;font-weight:800;font-stretch:normal;font-family:Poppins;-inkscape-font-specification:'Poppins Ultra-Bold';fill:#008080;fill-opacity:1;stroke-width:0.0700042"
           x="144.59615"
           y="-9.2128382"
           dy="0">Money</tspan></text>
      <g
         id="g2985"
         inkscape:export-filename="g2985.png"
         inkscape:export-xdpi="96"
         inkscape:export-ydpi="96">
        <g
           id="g2651"
           transform="translate(-0.09567468,-0.29988477)">
          <path
             id="path1524"
             style="color:#000000;font-size:97.2571px;-inkscape-font-specification:Poppins;fill:#00abab;fill-opacity:1;stroke:none;stroke-width:12;stroke-linecap:butt;stroke-linejoin:miter;paint-order:fill markers stroke"
             d="M 102.3138,93.355744 97.951371,79.556024 88.229605,108.0849 h 13.869165 z" />
          <path
             id="path1834"
             style="color:#000000;font-size:97.2571px;-inkscape-font-specification:Poppins;fill:#ff8d00;fill-opacity:1;stroke:none;stroke-width:12;stroke-linecap:butt;stroke-linejoin:miter;paint-order:fill markers stroke"
             d="m 121.68084,51.02686 5.38486,4.675166 c -5.86299,7.881157 -12.86572,25.296121 -13.94661,32.739604 L 109.6458,79.364148 103.50432,63.319649 H 88.883505 l -0.653349,44.764711 9.721107,-28.527976 4.361987,13.798641 6.3694,14.729335 h 13.5599 c 2.13893,-24.170133 7.21885,-38.408323 12.01768,-46.137754 l 5.17355,4.490682 -3.09361,-13.574365 c -0.0694,-0.304925 -0.38979,-0.57238 -0.719,-0.601513 z" />
          <path
             id="path1555"
             style="color:#000000;font-size:97.2571px;-inkscape-font-specification:Poppins;fill:#00abab;fill-opacity:1;stroke:none;stroke-width:12;stroke-linecap:butt;stroke-linejoin:miter;paint-order:fill markers stroke"
             d="m 130.611,69.039944 c 0.0454,0.14082 -4.43591,7.50536 -6.52739,23.48409 0.61884,4.88701 1.75828,10.750316 2.24088,15.560826 h 13.98811 c 0,0 -9.57676,-39.239666 -9.7016,-39.044916 z"
             sodipodi:nodetypes="ccccc" />
        </g>
        <text
           xml:space="preserve"
           style="font-size:29.0482px;line-height:1.25;font-family:Poppins;-inkscape-font-specification:Poppins;letter-spacing:-1.02643px;word-spacing:0px;fill:#00abab;fill-opacity:1;stroke-width:0.0700042"
           x="111.0722"
           y="100.02916"
           id="text3061"
           transform="skewX(17.694673)"><tspan
             sodipodi:role="line"
             id="tspan3059"
             style="font-style:normal;font-variant:normal;font-weight:800;font-stretch:normal;font-family:Poppins;-inkscape-font-specification:'Poppins Ultra-Bold';fill:#00abab;fill-opacity:1;stroke-width:0.0700042"
             x="111.0722"
             y="100.02916"
             dy="0">Money</tspan></text>
      </g>
      <text
         xml:space="preserve"
         style="font-size:13.6577px;line-height:1.25;font-family:Poppins;-inkscape-font-specification:Poppins;fill:#ff8d00;fill-opacity:1;stroke-width:0.0700039"
         x="52.985035"
         y="121.1385"
         id="text1717"
         transform="skewX(17.694673)"><tspan
           sodipodi:role="line"
           id="tspan1715"
           style="font-style:normal;font-variant:normal;font-weight:bold;font-stretch:normal;font-family:Poppins;-inkscape-font-specification:'Poppins Bold';fill:#ff8d00;fill-opacity:1;stroke-width:0.0700039"
           x="52.985035"
           y="121.1385">Manage your finances</tspan></text>
      <rect
         style="fill:#ffffff;stroke:none;stroke-width:12.2943;stroke-linecap:round;paint-order:stroke fill markers"
         id="rect349"
         width="318.55835"
         height="668.75568"
         x="735.37903"
         y="-226.62877"
         transform="matrix(1,0,0.3039445,0.95268974,0,0)"
         inkscape:export-filename="rect349.png"
         inkscape:export-xdpi="96"
         inkscape:export-ydpi="96" />
      <g
         id="g1225"
         transform="matrix(3.1848802,0,0,3.1848802,-501.97694,-373.78137)"
         style="stroke-width:0.0830747">
        <g
           id="g1088"
           inkscape:export-filename="g2985.png"
           inkscape:export-xdpi="96"
           inkscape:export-ydpi="96"
           transform="matrix(0.46219351,0,0,0.46219351,375.18873,109.60453)"
           style="stroke-width:0.179741">
          <g
             id="g1082"
             transform="translate(-0.09567468,-0.29988477)"
             style="stroke-width:0.179741">
            <path
               id="path1076"
               style="color:#000000;font-size:97.2571px;-inkscape-font-specification:Poppins;fill:#00abab;fill-opacity:1;stroke:none;stroke-width:8.15202;stroke-linecap:butt;stroke-linejoin:miter;paint-order:fill markers stroke"
               d="M 102.3138,93.355744 97.951371,79.556024 88.229605,108.0849 h 13.869165 z" />
            <path
               id="path1078"
               style="color:#000000;font-size:97.2571px;-inkscape-font-specification:Poppins;fill:#ff8d00;fill-opacity:1;stroke:none;stroke-width:8.15202;stroke-linecap:butt;stroke-linejoin:miter;paint-order:fill markers stroke"
               d="m 121.68084,51.02686 5.38486,4.675166 c -5.86299,7.881157 -12.86572,25.296121 -13.94661,32.739604 L 109.6458,79.364148 103.50432,63.319649 H 88.883505 l -0.653349,44.764711 9.721107,-28.527976 4.361987,13.798641 6.3694,14.729335 h 13.5599 c 2.13893,-24.170133 7.21885,-38.408323 12.01768,-46.137754 l 5.17355,4.490682 -3.09361,-13.574365 c -0.0694,-0.304925 -0.38979,-0.57238 -0.719,-0.601513 z" />
            <path
               id="path1080"
               style="color:#000000;font-size:97.2571px;-inkscape-font-specification:Poppins;fill:#00abab;fill-opacity:1;stroke:none;stroke-width:8.15202;stroke-linecap:butt;stroke-linejoin:miter;paint-order:fill markers stroke"
               d="m 130.611,69.039944 c 0.0454,0.14082 -4.43591,7.50536 -6.52739,23.48409 0.61884,4.88701 1.75828,10.750316 2.24088,15.560826 h 13.98811 c 0,0 -9.57676,-39.239666 -9.7016,-39.044916 z"
               sodipodi:nodetypes="ccccc" />
          </g>
          <text
             xml:space="preserve"
             style="font-size:29.0482px;line-height:1.25;font-family:Poppins;-inkscape-font-specification:Poppins;letter-spacing:-1.02643px;word-spacing:0px;fill:#00abab;fill-opacity:1;stroke-width:0.0475563"
             x="111.0722"
             y="100.02916"
             id="text1086"
             transform="skewX(17.694673)"><tspan
               sodipodi:role="line"
               id="tspan1084"
               style="font-style:normal;font-variant:normal;font-weight:800;font-stretch:normal;font-family:Poppins;-inkscape-font-specification:'Poppins Ultra-Bold';fill:#00abab;fill-opacity:1;stroke-width:0.0475563"
               x="111.0722"
               y="100.02916"
               dy="0">Money</tspan></text>
        </g>
        <text
           xml:space="preserve"
           style="font-size:4.06026px;line-height:1.25;font-family:Poppins;-inkscape-font-specification:Poppins;fill:#ff8d00;fill-opacity:1;stroke-width:0.0219799"
           x="370.58112"
           y="165.03766"
           id="text1092"
           transform="skewX(17.694673)"><tspan
             sodipodi:role="line"
             id="tspan1090"
             style="font-style:normal;font-variant:normal;font-weight:normal;font-stretch:normal;font-family:Poppins;-inkscape-font-specification:Poppins;fill:#ff8d00;fill-opacity:1;stroke-width:0.0219799"
             x="370.58112"
             y="165.03766">Manage your finances with us </tspan></text>
      </g>
    </g>
  </g>
</svg>
