<svg width="70" height="70" viewBox="0 0 70 70" fill="none" xmlns="http://www.w3.org/2000/svg">
<path d="M45.9375 39.375H24.0625V35H2.1875V61.7969C2.1875 62.232 2.36035 62.6493 2.66803 62.957C2.9757 63.2646 3.393 63.4375 3.82812 63.4375H66.1719C66.607 63.4375 67.0243 63.2646 67.332 62.957C67.6396 62.6493 67.8125 62.232 67.8125 61.7969V35H45.9375V39.375ZM67.8125 16.9531C67.8125 16.518 67.6396 16.1007 67.332 15.793C67.0243 15.4854 66.607 15.3125 66.1719 15.3125H52.5V7.65625C52.5 7.36617 52.3848 7.08797 52.1796 6.88285C51.9745 6.67773 51.6963 6.5625 51.4062 6.5625H18.5938C18.3037 6.5625 18.0255 6.67773 17.8204 6.88285C17.6152 7.08797 17.5 7.36617 17.5 7.65625V15.3125H3.82812C3.393 15.3125 2.9757 15.4854 2.66803 15.793C2.36035 16.1007 2.1875 16.518 2.1875 16.9531V30.625H67.8125V16.9531ZM47.0312 15.3125H22.9688V12.0312H47.0312V15.3125Z" fill="#2EA386"/>
</svg>
