<svg width="55" height="60" viewBox="0 0 55 60" fill="none" xmlns="http://www.w3.org/2000/svg">
<path d="M50.4167 4.61538H43.5417V2.30769C43.5417 1.69565 43.3002 1.10868 42.8705 0.675907C42.4407 0.243131 41.8578 0 41.25 0C40.6422 0 40.0593 0.243131 39.6295 0.675907C39.1998 1.10868 38.9583 1.69565 38.9583 2.30769V4.61538H16.0417V2.30769C16.0417 1.69565 15.8002 1.10868 15.3705 0.675907C14.9407 0.243131 14.3578 0 13.75 0C13.1422 0 12.5593 0.243131 12.1295 0.675907C11.6998 1.10868 11.4583 1.69565 11.4583 2.30769V4.61538H4.58333C3.36776 4.61538 2.20197 5.10165 1.34243 5.9672C0.482885 6.83275 0 8.00669 0 9.23077V55.3846C0 56.6087 0.482885 57.7826 1.34243 58.6482C2.20197 59.5137 3.36776 60 4.58333 60H50.4167C51.6322 60 52.798 59.5137 53.6576 58.6482C54.5171 57.7826 55 56.6087 55 55.3846V9.23077C55 8.00669 54.5171 6.83275 53.6576 5.9672C52.798 5.10165 51.6322 4.61538 50.4167 4.61538ZM22.9167 48.4615C22.9167 49.0736 22.6752 49.6605 22.2455 50.0933C21.8157 50.5261 21.2328 50.7692 20.625 50.7692C20.0172 50.7692 19.4343 50.5261 19.0045 50.0933C18.5748 49.6605 18.3333 49.0736 18.3333 48.4615V33.7327L17.0672 34.3731C16.5232 34.647 15.8935 34.692 15.3165 34.4984C14.7395 34.3047 14.2626 33.8882 13.9906 33.3404C13.7186 32.7926 13.6739 32.1585 13.8662 31.5775C14.0585 30.9965 14.4722 30.5162 15.0161 30.2423L19.5995 27.9346C19.949 27.7585 20.3374 27.6753 20.7279 27.693C21.1183 27.7106 21.4978 27.8286 21.8302 28.0355C22.1626 28.2425 22.4369 28.5317 22.6271 28.8755C22.8173 29.2193 22.9169 29.6064 22.9167 30V48.4615ZM38.9583 46.1538C39.5661 46.1538 40.149 46.397 40.5788 46.8298C41.0086 47.2625 41.25 47.8495 41.25 48.4615C41.25 49.0736 41.0086 49.6605 40.5788 50.0933C40.149 50.5261 39.5661 50.7692 38.9583 50.7692H29.7917C29.3661 50.7692 28.9489 50.6499 28.5869 50.4246C28.2248 50.1993 27.9323 49.8769 27.7419 49.4936C27.5516 49.1102 27.471 48.6811 27.5093 48.2543C27.5475 47.8275 27.703 47.4198 27.9583 47.0769L36.2026 36.0087C36.3901 35.7573 36.5247 35.4699 36.5979 35.1643C36.6712 34.8587 36.6817 34.5412 36.6288 34.2313C36.5758 33.9215 36.4606 33.6258 36.29 33.3624C36.1195 33.099 35.8974 32.8735 35.6372 32.6997C35.377 32.5259 35.0843 32.4074 34.777 32.3516C34.4697 32.2958 34.1544 32.3038 33.8503 32.3752C33.5462 32.4465 33.2598 32.5797 33.0087 32.7665C32.7575 32.9533 32.5469 33.1898 32.3898 33.4615C32.2438 33.7324 32.0454 33.971 31.8063 34.1633C31.5672 34.3557 31.2923 34.4978 30.9977 34.5814C30.7032 34.6651 30.395 34.6884 30.0913 34.6501C29.7877 34.6119 29.4947 34.5127 29.2297 34.3586C28.9647 34.2045 28.7331 33.9984 28.5484 33.7527C28.3638 33.5069 28.2299 33.2264 28.1546 32.9277C28.0794 32.629 28.0643 32.3182 28.1103 32.0135C28.1563 31.7088 28.2624 31.4165 28.4224 31.1538C29.1794 29.8347 30.3474 28.8038 31.7454 28.2211C33.1433 27.6383 34.6931 27.5362 36.1546 27.9306C37.616 28.3249 38.9074 29.1937 39.8287 30.4023C40.7499 31.6109 41.2495 33.0918 41.25 34.6154C41.2549 36.1204 40.7676 37.5852 39.8635 38.7837L34.375 46.1538H38.9583ZM4.58333 18.4615V9.23077H11.4583V11.5385C11.4583 12.1505 11.6998 12.7375 12.1295 13.1702C12.5593 13.603 13.1422 13.8462 13.75 13.8462C14.3578 13.8462 14.9407 13.603 15.3705 13.1702C15.8002 12.7375 16.0417 12.1505 16.0417 11.5385V9.23077H38.9583V11.5385C38.9583 12.1505 39.1998 12.7375 39.6295 13.1702C40.0593 13.603 40.6422 13.8462 41.25 13.8462C41.8578 13.8462 42.4407 13.603 42.8705 13.1702C43.3002 12.7375 43.5417 12.1505 43.5417 11.5385V9.23077H50.4167V18.4615H4.58333Z" fill="#009E9E"/>
</svg>
