<svg width="60" height="60" viewBox="0 0 60 60" fill="none" xmlns="http://www.w3.org/2000/svg">
<path fill-rule="evenodd" clip-rule="evenodd" d="M31.6666 0H28.3333V6.95C27.4716 7.25564 26.71 7.79141 26.1312 8.4992C25.5524 9.20699 25.1785 10.0598 25.05 10.965L12.9 14.2233C12.5241 14.3249 12.1956 14.5549 11.9716 14.8733L2.21329 28.6967H0.199955C0.198938 30.0382 0.38804 31.3732 0.761622 32.6617C2.34495 38.0883 7.08995 42.0283 12.7 42.0283C18.525 42.0283 23.4183 37.7783 24.8066 32.0283C25.0685 30.9388 25.2005 29.8222 25.2 28.7017V28.6967H23.6416L15.975 16.85L25.7116 14.2383C26.3107 15.235 27.2374 15.9927 28.3333 16.3817V53.3333H23.3333V56.6667H13.3333V60H46.6666V56.6667H36.6666V53.3333H31.6666V16.3833C32.6291 16.0427 33.4644 15.4157 34.0602 14.5866C34.6561 13.7575 34.984 12.7659 35 11.745L43.5666 9.44833L37.455 18.3333H35C35 19.4833 35.1366 20.6 35.3933 21.6667C36.7816 27.4167 41.6766 31.6667 47.5 31.6667C53.1083 31.6667 57.8549 27.7267 59.4383 22.2983C59.8119 21.0115 60.001 19.6783 60 18.3383V18.3333H56.7566L48.9333 5.81667C48.7478 5.50356 48.4649 5.25978 48.1278 5.12254C47.7908 4.98531 47.4181 4.96217 47.0666 5.05667L33.9333 8.58C33.3472 7.83348 32.5612 7.26879 31.6666 6.95167V0ZM41.5016 18.3333H52.8266L47.4333 9.705L41.5016 18.3333ZM19.6716 28.6967L13.2733 18.8083L6.29329 28.6967H19.6716Z" fill="#009E9E"/>
</svg>
