<svg width="24" height="24" viewBox="0 0 24 24" fill="none" xmlns="http://www.w3.org/2000/svg">
<path d="M22.2064 12.3313L19.4372 5.7775C19.3229 5.50096 19.1546 5.24996 18.9423 5.03917C18.7299 4.82838 18.4776 4.66202 18.2002 4.54981C17.6417 4.31852 17.0142 4.31852 16.4556 4.54981L8.14793 8.00212H3.89255C3.29189 7.99966 2.71473 8.23528 2.28741 8.65741C1.86009 9.07954 1.61743 9.65378 1.61255 10.2544V17.3621C1.61376 17.6603 1.67369 17.9554 1.78893 18.2304C1.90416 18.5054 2.07245 18.7551 2.28416 18.9651C2.49588 19.1751 2.74689 19.3413 3.02286 19.4543C3.29882 19.5673 3.59435 19.6249 3.89255 19.6237H16.5941C16.8923 19.6249 17.1878 19.5673 17.4638 19.4543C17.7397 19.3413 17.9908 19.1751 18.2025 18.9651C18.4142 18.7551 18.5825 18.5054 18.6977 18.2304C18.8129 17.9554 18.8729 17.6603 18.8741 17.3621V16.1437L20.9879 15.2667C21.5402 15.0359 21.9807 14.5988 22.2156 14.0483C22.3305 13.7764 22.3889 13.484 22.3873 13.1889C22.3857 12.8937 22.3242 12.602 22.2064 12.3313ZM2.53563 10.2544C2.54049 9.8986 2.68589 9.55914 2.9401 9.31012C3.19431 9.0611 3.5367 8.92272 3.89255 8.92519H4.92639C4.71555 9.46452 4.39379 9.95354 3.98195 10.3606C3.57011 10.7677 3.07737 11.0837 2.53563 11.2883V10.2544ZM3.89255 18.7006C3.71557 18.7018 3.54008 18.6681 3.3761 18.6015C3.21213 18.5349 3.06288 18.4367 2.93687 18.3124C2.81087 18.1881 2.71058 18.0402 2.64174 17.8772C2.57289 17.7141 2.53683 17.5391 2.53563 17.3621V16.3467C3.07818 16.5492 3.57216 16.8633 3.98559 17.2688C4.39903 17.6743 4.72269 18.1621 4.93563 18.7006H3.89255ZM17.951 17.3621C17.9498 17.5391 17.9137 17.7141 17.8449 17.8772C17.7761 18.0402 17.6758 18.1881 17.5498 18.3124C17.4238 18.4367 17.2745 18.5349 17.1105 18.6015C16.9466 18.6681 16.7711 18.7018 16.5941 18.7006H15.671C15.8755 18.1778 16.1849 17.7026 16.5803 17.3041C16.9756 16.9056 17.4484 16.5923 17.9695 16.3837L17.951 17.3621ZM17.951 15.4237C17.1849 15.6705 16.4888 16.0966 15.9205 16.6665C15.3521 17.2365 14.928 17.9338 14.6833 18.7006H5.89563C5.64582 17.9184 5.20938 17.2088 4.62398 16.6331C4.03858 16.0573 3.32183 15.6327 2.53563 15.396V12.239C3.32323 12.0021 4.04102 11.5764 4.6266 10.9988C5.21218 10.4213 5.64782 9.70944 5.89563 8.92519H14.6833C14.9247 9.69477 15.3475 10.395 15.9162 10.9669C16.4849 11.5389 17.1828 11.9657 17.951 12.2113V15.4237ZM17.951 11.2513C17.4285 11.0408 16.9543 10.726 16.5575 10.326C16.1608 9.92605 15.8497 9.44941 15.6433 8.92519H16.5664C16.9222 8.92272 17.2646 9.0611 17.5188 9.31012C17.7731 9.55914 17.9185 9.8986 17.9233 10.2544L17.951 11.2513ZM21.3756 13.7067C21.3091 13.8724 21.2093 14.0227 21.0822 14.1481C20.9552 14.2736 20.8037 14.3716 20.6372 14.436L18.8741 15.1652V10.2544C18.8692 9.65378 18.6265 9.07954 18.1992 8.65741C17.7719 8.23528 17.1947 7.99966 16.5941 8.00212H10.511L16.8156 5.38981C16.9851 5.33163 17.1626 5.30048 17.3418 5.2975C17.5179 5.30036 17.6925 5.33153 17.8587 5.38981C18.0244 5.45562 18.1752 5.5541 18.302 5.67938C18.4289 5.80465 18.5293 5.95418 18.5972 6.11904L21.3664 12.6821C21.4985 13.0103 21.5018 13.3762 21.3756 13.7067Z" fill="#00ABAB"/>
<path d="M10.2342 16.2452C9.77779 16.2452 9.33162 16.1099 8.95212 15.8563C8.57262 15.6027 8.27684 15.2423 8.10218 14.8206C7.92751 14.399 7.88181 13.935 7.97086 13.4873C8.0599 13.0397 8.27969 12.6285 8.60242 12.3057C8.92516 11.983 9.33635 11.7632 9.784 11.6742C10.2316 11.5851 10.6956 11.6308 11.1173 11.8055C11.539 11.9801 11.8994 12.2759 12.153 12.6554C12.4066 13.0349 12.5419 13.4811 12.5419 13.9375C12.5419 14.5496 12.2988 15.1365 11.866 15.5693C11.4332 16.0021 10.8462 16.2452 10.2342 16.2452ZM10.2342 12.5529C9.96036 12.5529 9.69265 12.6341 9.46496 12.7862C9.23726 12.9384 9.05979 13.1546 8.95499 13.4076C8.85019 13.6607 8.82277 13.9391 8.8762 14.2076C8.92962 14.4762 9.06149 14.7229 9.25514 14.9166C9.44878 15.1102 9.69549 15.2421 9.96408 15.2955C10.2327 15.349 10.5111 15.3215 10.7641 15.2167C11.0171 15.1119 11.2333 14.9345 11.3855 14.7068C11.5376 14.4791 11.6188 14.2114 11.6188 13.9375C11.6188 13.5703 11.4729 13.2181 11.2133 12.9584C10.9536 12.6988 10.6014 12.5529 10.2342 12.5529Z" fill="#00ABAB"/>
</svg>
