<svg width="55" height="65" viewBox="0 0 55 65" fill="none" xmlns="http://www.w3.org/2000/svg">
<path d="M51.6371 43.1213L46.4448 30.8329C46.2305 30.3143 45.9151 29.8437 45.5169 29.4485C45.1187 29.0533 44.6457 28.7413 44.1256 28.5309C43.0783 28.0973 41.9017 28.0973 40.8545 28.5309L25.2775 35.004H17.2987C16.1724 34.9994 15.0903 35.4412 14.289 36.2327C13.4878 37.0242 13.0328 38.1009 13.0237 39.2271V52.554C13.0259 53.1131 13.1383 53.6664 13.3544 54.1821C13.5705 54.6978 13.886 55.1658 14.283 55.5596C14.6799 55.9534 15.1506 56.2651 15.668 56.4769C16.1854 56.6888 16.7396 56.7967 17.2987 56.7944H41.1141C41.6732 56.7967 42.2273 56.6888 42.7447 56.4769C43.2622 56.2651 43.7328 55.9534 44.1298 55.5596C44.5268 55.1658 44.8423 54.6978 45.0584 54.1821C45.2744 53.6664 45.3868 53.1131 45.3891 52.554V50.2694L49.3525 48.6252C50.388 48.1924 51.2139 47.3728 51.6544 46.3406C51.8698 45.8308 51.9793 45.2826 51.9763 44.7292C51.9733 44.1758 51.858 43.6288 51.6371 43.1213ZM14.7545 39.2271C14.7636 38.5599 15.0362 37.9234 15.5128 37.4565C15.9895 36.9896 16.6315 36.7302 17.2987 36.7348H19.2371C18.8418 37.746 18.2385 38.6629 17.4663 39.4262C16.6941 40.1895 15.7702 40.782 14.7545 41.1656V39.2271ZM17.2987 55.0636C16.9668 55.0659 16.6378 55.0028 16.3303 54.8779C16.0229 54.753 15.743 54.5688 15.5068 54.3358C15.2705 54.1027 15.0825 53.8254 14.9534 53.5197C14.8243 53.214 14.7567 52.8859 14.7545 52.554V50.6502C15.7717 51.0297 16.698 51.6187 17.4731 52.379C18.2483 53.1393 18.8552 54.0539 19.2545 55.0636H17.2987ZM43.6583 52.554C43.656 52.8859 43.5884 53.214 43.4593 53.5197C43.3303 53.8254 43.1422 54.1027 42.906 54.3358C42.6697 54.5688 42.3899 54.753 42.0824 54.8779C41.7749 55.0028 41.4459 55.0659 41.1141 55.0636H39.3833C39.7667 54.0835 40.3469 53.1923 41.0882 52.4452C41.8294 51.698 42.7159 51.1106 43.6929 50.7194L43.6583 52.554ZM43.6583 48.9194C42.2219 49.3822 40.9166 50.1812 39.851 51.2498C38.7854 52.3184 37.9902 53.6259 37.5314 55.0636H21.0545C20.5861 53.5971 19.7677 52.2666 18.6701 51.1871C17.5725 50.1075 16.2286 49.3114 14.7545 48.8675V42.9482C16.2312 42.504 17.5771 41.7057 18.675 40.6228C19.773 39.54 20.5898 38.2052 21.0545 36.7348H37.5314C37.9839 38.1777 38.7768 39.4907 39.8431 40.5631C40.9094 41.6354 42.2179 42.4356 43.6583 42.8963V48.9194ZM43.6583 41.0963C42.6785 40.7016 41.7895 40.1112 41.0455 39.3613C40.3016 38.6114 39.7183 37.7177 39.3314 36.7348H41.0621C41.7294 36.7302 42.3713 36.9896 42.848 37.4565C43.3246 37.9234 43.5972 38.5599 43.6064 39.2271L43.6583 41.0963ZM50.0794 45.7002C49.9548 46.0109 49.7675 46.2926 49.5293 46.5278C49.2911 46.763 49.0071 46.9467 48.6948 47.0675L45.3891 48.4348V39.2271C45.3799 38.1009 44.9249 37.0242 44.1237 36.2327C43.3225 35.4412 42.2403 34.9994 41.1141 35.004H29.7083L41.5294 30.1059C41.8472 29.9969 42.1801 29.9384 42.516 29.9329C42.8463 29.9382 43.1735 29.9967 43.4852 30.1059C43.7959 30.2293 44.0786 30.414 44.3165 30.6489C44.5544 30.8838 44.7425 31.1641 44.8698 31.4732L50.0621 43.779C50.3099 44.3943 50.3161 45.0805 50.0794 45.7002Z" fill="#246A9C"/>
<path d="M29.189 50.4598C28.3332 50.4598 27.4966 50.206 26.7851 49.7305C26.0735 49.2551 25.5189 48.5793 25.1914 47.7887C24.8639 46.998 24.7782 46.128 24.9452 45.2887C25.1122 44.4494 25.5243 43.6784 26.1294 43.0732C26.7345 42.4681 27.5055 42.056 28.3448 41.8891C29.1842 41.7221 30.0542 41.8078 30.8448 42.1353C31.6355 42.4628 32.3112 43.0174 32.7867 43.7289C33.2621 44.4405 33.5159 45.277 33.5159 46.1328C33.5159 47.2804 33.06 48.381 32.2486 49.1924C31.4371 50.0039 30.3366 50.4598 29.189 50.4598ZM29.189 43.5367C28.6755 43.5367 28.1736 43.6889 27.7466 43.9742C27.3197 44.2595 26.9869 44.6649 26.7905 45.1393C26.594 45.6137 26.5425 46.1357 26.6427 46.6393C26.7429 47.1429 26.9901 47.6055 27.3532 47.9686C27.7163 48.3317 28.1789 48.5789 28.6825 48.6791C29.1861 48.7793 29.7081 48.7279 30.1825 48.5314C30.6569 48.3349 31.0623 48.0021 31.3476 47.5752C31.6329 47.1482 31.7851 46.6463 31.7851 46.1328C31.7851 45.4443 31.5116 44.7839 31.0247 44.2971C30.5379 43.8102 29.8775 43.5367 29.189 43.5367Z" fill="#246A9C"/>
<path d="M44.0768 9.21349H43.1537V7.48272C43.1537 7.02369 42.9714 6.58347 42.6468 6.25888C42.3222 5.9343 41.882 5.75195 41.423 5.75195H30.5768C30.1178 5.75195 29.6776 5.9343 29.353 6.25888C29.0284 6.58347 28.846 7.02369 28.846 7.48272V9.21349H27.923C27.1569 9.21654 26.4232 9.52302 25.8825 10.0658C25.3419 10.6086 25.0383 11.3435 25.0384 12.1096V21.3404C25.0368 21.7207 25.1102 22.0976 25.2544 22.4496C25.3985 22.8016 25.6106 23.1217 25.8785 23.3917C26.1463 23.6617 26.4647 23.8763 26.8155 24.0232C27.1663 24.1702 27.5426 24.2466 27.923 24.2481H44.0768C44.4571 24.2466 44.8335 24.1702 45.1843 24.0232C45.5351 23.8763 45.8535 23.6617 46.1213 23.3917C46.3892 23.1217 46.6013 22.8016 46.7454 22.4496C46.8895 22.0976 46.9629 21.7207 46.9614 21.3404V12.1096C46.9614 11.3435 46.6579 10.6086 46.1173 10.0658C45.5766 9.52302 44.8429 9.21654 44.0768 9.21349ZM29.9999 7.48272C29.9999 7.32971 30.0607 7.18297 30.1689 7.07478C30.2771 6.96658 30.4238 6.9058 30.5768 6.9058H41.423C41.576 6.9058 41.7227 6.96658 41.8309 7.07478C41.9391 7.18297 41.9999 7.32971 41.9999 7.48272V9.21349H29.9999V7.48272ZM26.1922 12.0981C26.1952 11.64 26.3785 11.2015 26.7025 10.8776C27.0264 10.5537 27.4649 10.3704 27.923 10.3673H44.0768C44.5369 10.3704 44.9771 10.5553 45.3014 10.8817C45.6256 11.2081 45.8076 11.6495 45.8076 12.1096V15.9635H38.3537C38.225 15.4364 37.923 14.9678 37.4962 14.6327C37.0694 14.2976 36.5425 14.1155 35.9999 14.1155C35.4573 14.1155 34.9304 14.2976 34.5036 14.6327C34.0768 14.9678 33.7748 15.4364 33.646 15.9635H26.1922V12.0981ZM37.2691 16.5173C37.2705 16.7195 37.2188 16.9184 37.1191 17.0943C37.0166 17.3037 36.8573 17.4802 36.6595 17.6036C36.4616 17.7271 36.2331 17.7925 35.9999 17.7925C35.7667 17.7925 35.5382 17.7271 35.3403 17.6036C35.1425 17.4802 34.9832 17.3037 34.8807 17.0943C34.7794 16.9189 34.7261 16.7199 34.7261 16.5173C34.7261 16.3148 34.7794 16.1158 34.8807 15.9404C34.9832 15.731 35.1425 15.5545 35.3403 15.4311C35.5382 15.3076 35.7667 15.2422 35.9999 15.2422C36.2331 15.2422 36.4616 15.3076 36.6595 15.4311C36.8573 15.5545 37.0166 15.731 37.1191 15.9404C37.2188 16.1163 37.2705 16.3152 37.2691 16.5173ZM45.8076 21.3058C45.8091 21.5346 45.7655 21.7615 45.6794 21.9734C45.5932 22.1854 45.4662 22.3783 45.3054 22.5412C45.1447 22.704 44.9535 22.8337 44.7427 22.9226C44.5319 23.0116 44.3056 23.0581 44.0768 23.0596H27.923C27.6942 23.0581 27.4679 23.0116 27.2571 22.9226C27.0463 22.8337 26.8551 22.704 26.6943 22.5412C26.5336 22.3783 26.4066 22.1854 26.3204 21.9734C26.2342 21.7615 26.1907 21.5346 26.1922 21.3058V17.1173H33.646C33.7748 17.6444 34.0768 18.1131 34.5036 18.4481C34.9304 18.7832 35.4573 18.9653 35.9999 18.9653C36.5425 18.9653 37.0694 18.7832 37.4962 18.4481C37.923 18.1131 38.225 17.6444 38.3537 17.1173H45.8076V21.3058Z" fill="#246A9C" stroke="#246A9C" stroke-width="0.5"/>
<path d="M20.8732 25.0396C20.8331 24.7225 20.7379 24.4024 20.5209 24.1647L20.326 23.9739L16.3029 20.0364L16.5929 18.1153L16.7276 17.1869L14.3776 14.887C14.0186 14.5356 13.5347 14.3413 13.0324 14.3467C12.53 14.3521 12.0504 14.5568 11.6991 14.9158L5.8697 20.872C5.51833 21.231 5.32397 21.7149 5.32937 22.2173C5.33478 22.7196 5.53951 23.1992 5.89853 23.5506L13.4792 30.9697C13.8382 31.3211 14.3221 31.5155 14.8244 31.5101C15.3267 31.5047 15.8063 31.2999 16.1577 30.9409L20.3548 26.6525C20.561 26.4426 20.7153 26.1875 20.8053 25.9075C20.8953 25.6274 20.9186 25.3302 20.8732 25.0396ZM12.2405 15.4458C12.4514 15.2303 12.7391 15.1075 13.0405 15.1043C13.3419 15.101 13.6323 15.2176 13.8477 15.4285L15.9215 17.4581L15.6314 19.3793L12.7454 16.5547L12.545 16.3586C12.3112 16.1298 11.9926 16.0498 11.6787 16.009L12.2405 15.4458ZM15.6162 30.411C15.4054 30.6264 15.1176 30.7492 14.8162 30.7525C14.5148 30.7557 14.2245 30.6391 14.0091 30.4283L6.42847 23.0091C6.21306 22.7983 6.09022 22.5105 6.08698 22.2091C6.08374 21.9077 6.20035 21.6174 6.41118 21.402L10.6083 17.1135C10.8191 16.8981 11.1069 16.7752 11.4083 16.772C11.7097 16.7688 12 16.8854 12.2154 17.0962L19.7961 24.5154C20.0115 24.7262 20.1343 25.014 20.1376 25.3154C20.1408 25.6168 20.0242 25.9071 19.8134 26.1225L15.6162 30.411Z" fill="#246A9C" stroke="#246A9C" stroke-width="0.6"/>
</svg>
