<svg width="60" height="60" viewBox="0 0 60 60" fill="none" xmlns="http://www.w3.org/2000/svg">
<g clip-path="url(#clip0_213_17)">
<path d="M1.25362e-07 30C-0.000695218 22.3893 2.89128 15.0627 8.09016 9.50438C13.289 3.94604 20.4062 0.57141 28 0.0640259V16.144C25.8891 16.4486 23.8756 17.2315 22.1134 18.4328C20.3511 19.6342 18.8867 21.2223 17.8318 23.0759C16.7769 24.9296 16.1594 26.9997 16.0265 29.1284C15.8937 31.257 16.2489 33.3879 17.0651 35.3583C17.8813 37.3287 19.137 39.0866 20.7361 40.4978C22.3353 41.909 24.2358 42.9361 26.2924 43.5009C28.3491 44.0656 30.5076 44.1529 32.6032 43.7563C34.6988 43.3596 36.676 42.4894 38.384 41.212L49.752 52.58C45.4143 56.3745 40.0755 58.8392 34.3739 59.6794C28.6724 60.5197 22.8495 59.6999 17.6016 57.3181C12.3537 54.9364 7.90292 51.0934 4.78146 46.2488C1.66 41.4043 9.0414e-06 35.7631 1.25362e-07 30Z" fill="#009E9E"/>
<path d="M52.58 49.752C57.3727 44.2892 60.0106 37.2672 60 30C60 25.864 59.16 21.928 57.652 18.344L43.02 24.84C43.9008 27.0633 44.1971 29.4753 43.8806 31.8457C43.5641 34.216 42.6453 36.4657 41.212 38.38L52.58 49.752ZM32 16.14V0.0640259C36.8723 0.388381 41.5917 1.89732 45.7484 4.45979C49.9051 7.02227 53.3734 10.5608 55.852 14.768L41.016 21.36C38.7949 18.524 35.5654 16.6542 32 16.14Z" fill="#009E9E"/>
</g>
<defs>
<clipPath id="clip0_213_17">
<rect width="60" height="60" fill="white"/>
</clipPath>
</defs>
</svg>
